HIERARCHY
ROOT root
{
	OFFSET	0	13.1	24.9
	CHANNELS 6  Xposition Yposition Zposition Xrotation Yrotation Zrotation
	JOINT spine_1
	{
		OFFSET	0	9.99999	0
		CHANNELS 3  Xrotation Yrotation Zrotation
		JOINT spine_2
		{
			OFFSET	0	112	-10
			CHANNELS 3  Xrotation Yrotation Zrotation
			JOINT spine_3
			{
				OFFSET	0	206.5	19.3
				CHANNELS 3  Xrotation Yrotation Zrotation
				JOINT spine_4
				{
					OFFSET	0	110.4	14.6
					CHANNELS 3  Xrotation Yrotation Zrotation
					JOINT neck_1
					{
						OFFSET	0	71.8	-50.3
						CHANNELS 3  Xrotation Yrotation Zrotation
						JOINT neck_2
						{
							OFFSET	0	86.2	-25.8
							CHANNELS 3  Xrotation Yrotation Zrotation
							JOINT head_ee
							{
								OFFSET	0	179.8	-8.7
								CHANNELS 3  Xrotation Yrotation Zrotation
								End Site
								{
									OFFSET	1	0	0
								}
							}
						}
					}
					JOINT left_clavicle
					{
						OFFSET	-43.2	22.4	-70.8
						CHANNELS 3  Xrotation Yrotation Zrotation
						JOINT left_shoulder
						{
							OFFSET	-93.9	-5.79999	48.7
							CHANNELS 3  Xrotation Yrotation Zrotation
							JOINT left_elbow
							{
								OFFSET	-291.4	-30.8	15.2
								CHANNELS 3  Xrotation Yrotation Zrotation
								JOINT left_lowarm_twist
								{
									OFFSET	-110.7	-3.89999	13.6
									CHANNELS 3  Xrotation Yrotation Zrotation
									JOINT left_hand
									{
										OFFSET	-110.7	-3.89999	13.6
										CHANNELS 3  Xrotation Yrotation Zrotation
										JOINT left_ee
										{
											OFFSET	-80.8	-5.10001	12.1
											CHANNELS 3  Xrotation Yrotation Zrotation
											End Site
											{
												OFFSET	1	0	0
											}
										}
									}
								}
							}
						}
					}
					JOINT right_clavicle
					{
						OFFSET	43.2	22.4	-70.8
						CHANNELS 3  Xrotation Yrotation Zrotation
						JOINT right_shoulder
						{
							OFFSET	93.9	-5.79999	48.7
							CHANNELS 3  Xrotation Yrotation Zrotation
							JOINT right_elbow
							{
								OFFSET	291.4	-30.8	15.2
								CHANNELS 3  Xrotation Yrotation Zrotation
								JOINT right_lowarm_twist
								{
									OFFSET	110.7	-3.89999	13.6
									CHANNELS 3  Xrotation Yrotation Zrotation
									JOINT right_hand
									{
										OFFSET	110.7	-3.89999	13.6
										CHANNELS 3  Xrotation Yrotation Zrotation
										JOINT right_ee
										{
											OFFSET	80.8	-5.10001	12.1
											CHANNELS 3  Xrotation Yrotation Zrotation
											End Site
											{
												OFFSET	1	0	0
											}
										}
									}
								}
							}
						}
					}
				}
			}
		}
	}
	JOINT left_hip
	{
		OFFSET	-82.8	-127.5	0.300001
		CHANNELS 3  Xrotation Yrotation Zrotation
		JOINT left_knee
		{
			OFFSET	-28.2	-396.7	2.2
			CHANNELS 3  Xrotation Yrotation Zrotation
			JOINT left_ankle
			{
				OFFSET	-11.7	-411.3	35.4
				CHANNELS 3  Xrotation Yrotation Zrotation
				JOINT left_toes
				{
					OFFSET	0	-60	-88.6
					CHANNELS 3  Xrotation Yrotation Zrotation
					JOINT left_foot_ee
					{
						OFFSET	-22.5	-16.5	-42.2
						CHANNELS 3  Xrotation Yrotation Zrotation
						End Site
						{
							OFFSET	1	0	0
						}
					}
				}
			}
		}
	}
	JOINT right_hip
	{
		OFFSET	82.8	-127.5	0.300001
		CHANNELS 3  Xrotation Yrotation Zrotation
		JOINT right_knee
		{
			OFFSET	28.2	-396.7	2.2
			CHANNELS 3  Xrotation Yrotation Zrotation
			JOINT right_ankle
			{
				OFFSET	11.7	-411.3	35.4
				CHANNELS 3  Xrotation Yrotation Zrotation
				JOINT right_toes
				{
					OFFSET	0	-60	-88.6
					CHANNELS 3  Xrotation Yrotation Zrotation
					JOINT right_foot_ee
					{
						OFFSET	22.5	-16.5	-42.2
						CHANNELS 3  Xrotation Yrotation Zrotation
						End Site
						{
							OFFSET	1	0	0
						}
					}
				}
			}
		}
	}
}
MOTION
Frames: 11
Frame Time: 0.02
1249.44023183 715.855 -1828.3596877 4.61336473777 10.7202642992 -0.571373516229 -0.164335 0.124701 -0.789456 -0.164005 0.174682 -0.779922 -0.166297 0.336829 -0.724805 -0.166964 0.218136 -0.768901 -4.77595 13.298 -1.50382 -4.59138 25.5736 0.713717 -0.0 0.0 -0.0 2.55746 18.358 6.02236 -27.6752 -42.0143 67.1792 0.462858 -12.9141 0.0523848 -26.9671 -1.68338 2.97653 -0.763158 -13.3842 -10.8855 -0.0 0.0 -0.0 11.7983 27.6732 -22.7239 14.1253 -13.5809 -59.5199 0.450045 12.5682 -0.0495591 58.6184 1.65248 6.97902 0.720133 12.6655 0.533113 0.0 0.0 0.0 17.7883 -9.59455 -0.719188 -63.0476 -2.5379 8.8524 30.7277 -2.27995 -4.00746 -25.3436 0.0 0.0 -0.0 0.0 -0.0 2.93332 0.189293 -2.9544 -9.31425 -0.27 -1.40238 24.5041 15.7019 3.53893 -15.8188 0.0 0.0 0.0 0.0 0.0 
1255.78603497 715.855 -1830.49944595 4.59852060648 9.69713009374 -0.487622509994 -0.164335 0.124701 -0.789456 -0.164005 0.174682 -0.779922 -0.166297 0.336829 -0.724805 -0.166964 0.218136 -0.768901 -4.77595 13.298 -1.50382 -4.59138 25.5736 0.713717 -0.0 0.0 -0.0 2.55746 18.358 6.02236 -27.6752 -42.0143 67.1792 0.462858 -12.9141 0.0523848 -26.9671 -1.68338 2.97653 -0.763158 -13.3842 -10.8855 -0.0 0.0 -0.0 11.7983 27.6732 -22.7239 14.1253 -13.5809 -59.5199 0.450045 12.5682 -0.0495591 58.6184 1.65248 6.97902 0.720133 12.6655 0.533113 0.0 0.0 0.0 17.7883 -9.59455 -0.719188 -63.0476 -2.5379 8.8524 30.7277 -2.27995 -4.00746 -25.3436 0.0 0.0 -0.0 0.0 -0.0 2.93332 0.189293 -2.9544 -9.31425 -0.27 -1.40238 24.5041 15.7019 3.53893 -15.8188 0.0 0.0 0.0 0.0 0.0 
1249.70057972 713.261 -1840.72671476 3.75087256027 10.3751583039 -1.00064797142 -0.171981 0.380252 -0.461268 -0.171955 0.408832 -0.436137 -0.175153 0.492413 -0.338952 -0.175052 0.432702 -0.412466 -4.47002 13.7962 -1.06826 -4.26152 26.129 1.17471 -0.0 0.0 -0.0 2.1761 17.6981 5.40682 -29.5995 -42.8804 66.0154 0.507801 -14.12 0.0628902 -25.9802 -1.59798 2.88321 -0.770143 -12.6655 -10.628 -0.0 0.0 -0.0 11.8894 27.7844 -22.9169 15.7364 -8.51069 -59.7562 0.497778 13.8521 -0.0604679 59.7933 1.75556 7.08883 0.538922 11.4374 1.22634 0.0 0.0 0.0 19.8362 -8.89912 -0.406503 -64.118 -2.66068 8.96295 27.914 -2.44357 -3.70441 -25.5275 0.0 0.0 -0.0 0.0 -0.0 3.02138 1.54111 -2.09937 -9.48739 -0.272848 -1.42879 25.7287 18.3572 3.76391 -15.5924 0.0 0.0 0.0 0.0 0.0 
1209.98733309 711.021 -1872.71086564 2.47636582016 20.1534565938 -2.33856036756 0.548151 0.00690553 -0.267241 0.54819 0.0238967 -0.26626 0.548088 0.0768794 -0.256037 0.547998 0.0354784 -0.264966 -5.28818 13.7421 0.299655 -5.16878 25.1185 2.74522 -0.0 0.0 -0.0 1.72147 17.3149 4.68313 -30.0148 -41.5781 66.9325 0.321607 -9.05217 0.0254584 -27.6394 -1.74248 3.03926 -0.125729 -15.4846 -7.4412 -0.0 0.0 -0.0 11.5828 27.6787 -22.2347 20.1252 -12.3133 -57.3586 0.680977 18.6412 -0.111767 59.8125 1.75726 7.09061 0.992922 10.9766 -2.0341 0.0 0.0 0.0 27.8325 -12.7305 3.32945 -53.1696 -1.50927 7.73133 18.7825 -5.03176 -2.63862 -29.6718 0.0 0.0 -0.0 0.0 -0.0 -0.424569 4.54664 -1.45201 -6.40734 -0.210284 -0.960343 26.5025 16.4503 3.80241 -16.4863 0.0 0.0 0.0 0.0 0.0 
1200.10916097 710.333 -1895.34016156 2.65847284003 23.0747359742 -2.57805530032 0.683926 0.0680126 -0.110596 0.68393 0.0749123 -0.106044 0.683789 0.0944708 -0.089064 0.683786 0.0792192 -0.102866 -4.66419 13.4291 0.789446 -4.51806 24.0864 3.06111 -0.0 0.0 -0.0 1.89811 14.7553 4.78953 -34.7005 -43.4989 64.5392 0.382183 -10.7207 0.0358603 -25.3113 -1.54102 2.81914 -0.179001 -14.7972 -7.50947 -0.0 0.0 -0.0 11.5217 27.4599 -22.1229 17.695 -6.65537 -56.9122 0.879953 23.5523 -0.183453 62.5999 2.01078 7.34247 0.863995 8.23303 -2.33891 0.0 0.0 0.0 28.0195 -6.01488 1.86521 -47.5006 -1.01153 7.01449 15.6607 -7.95612 -2.2603 -30.2625 0.0 0.0 -0.0 0.0 -0.0 -1.8899 4.43089 -1.97301 -6.08804 -0.20236 -0.911983 28.1473 19.1892 4.08302 -17.2688 0.0 0.0 0.0 0.0 0.0 
1195.56708323 713.384 -1906.90282549 2.02707341637 24.8107924218 -2.24541865488 0.594517 0.0726279 -0.0417895 0.594515 0.0751399 -0.0370833 0.594464 0.0810389 -0.0213043 0.594472 0.0766572 -0.0338355 -4.59892 12.5496 0.732392 -4.46864 22.4987 2.84383 -0.0 0.0 -0.0 2.5207 13.0019 5.70104 -33.7162 -41.885 65.0527 0.310037 -8.73163 0.02367 -25.1366 -1.52626 2.8023 0.213005 -16.5255 -5.60262 -0.0 0.0 -0.0 11.3133 27.1177 -21.692 14.8156 -7.50246 -56.9361 1.29441 32.6671 -0.379351 63.3041 2.07676 7.40414 1.23087 6.21384 -5.67835 0.0 0.0 0.0 29.4642 0.223025 1.06718 -41.3105 -0.552237 6.18074 12.0164 -9.47942 -1.7753 -32.388 0.0 0.0 -0.0 0.0 -0.0 -2.52677 5.20503 -2.5031 -4.7858 -0.16725 -0.715223 28.2658 18.1462 4.06266 -17.4377 0.0 0.0 0.0 0.0 0.0 
1186.58919052 714.581 -1919.46399497 1.01386034906 27.3339971219 -2.10443977686 0.51294 0.025832 0.179097 0.512958 0.0143833 0.180378 0.51301 -0.0222422 0.179578 0.512965 0.00639792 0.180837 -3.79072 11.3961 0.0330447 -3.63898 20.8043 1.79899 -0.0 0.0 -0.0 3.18246 11.4288 6.737 -32.2035 -39.9449 65.6031 0.190523 -5.39171 0.00897104 -24.7705 -1.49552 2.76686 0.395226 -15.7753 -4.05739 -0.0 0.0 -0.0 10.5316 25.1022 -20.1506 12.7712 -5.63529 -58.7428 1.6222 38.782 -0.571013 63.2735 2.07387 7.40148 1.71033 6.36291 -8.87662 0.0 0.0 0.0 29.8149 3.63089 0.324059 -38.2578 -0.359668 5.75284 10.3422 -11.2429 -1.55378 -34.2149 0.0 0.0 -0.0 0.0 -0.0 -3.10991 4.14801 -2.48775 -3.56642 -0.130323 -0.531732 27.661 19.3524 4.03058 -18.3114 0.0 0.0 0.0 0.0 0.0 
1171.36299985 710.859 -1936.42203029 1.31295992177 29.4772732214 -1.49736512759 0.542615 0.0827087 0.00942173 0.542611 0.0819415 0.0146656 0.542632 0.0773243 0.0308292 0.542639 0.0812228 0.0182304 -3.29237 11.0123 0.486016 -3.14001 19.693 2.13106 -0.0 0.0 -0.0 3.10197 10.0588 6.53899 -35.0664 -39.7411 64.8697 0.337244 -9.48448 0.0279768 -24.0336 -1.43432 2.69495 0.625923 -15.4793 -2.38169 -0.0 0.0 -0.0 10.7151 23.9096 -20.6825 10.4539 -2.587 -57.0335 2.08709 45.9489 -0.8849 64.4236 2.18318 7.5005 1.71417 4.33473 -9.75574 0.0 0.0 0.0 30.4887 6.8533 -1.19896 -31.5747 -0.0194635 4.78474 7.81346 -8.92017 -1.16945 -37.4194 0.0 0.0 -0.0 0.0 -0.0 -4.14498 4.81751 -3.94144 -4.52181 -0.159587 -0.675433 29.7717 21.06 4.34152 -17.5161 0.0 0.0 0.0 0.0 0.0 
1158.86699447 706.545 -1955.51001548 1.67005723417 31.4430875948 -0.2331033039 0.609922 0.0599702 -0.338938 0.609982 0.081416 -0.334436 0.609513 0.146585 -0.31143 0.60939 0.0955612 -0.330672 -2.9221 10.1957 0.488157 -2.78106 18.1561 1.96288 -0.0 0.0 -0.0 3.15717 8.76175 6.57479 -34.2776 -37.9 66.1637 0.287298 -8.10006 0.0203419 -24.0389 -1.43476 2.69547 0.909011 -16.2791 -0.832887 -0.0 0.0 -0.0 10.5379 23.9329 -20.2808 9.60832 -1.17491 -55.8538 2.31185 48.8659 -1.05042 63.9239 2.13545 7.45775 1.80862 1.45679 -11.5869 0.0 0.0 0.0 30.8502 7.53625 -2.65112 -28.8329 0.0869964 4.37748 6.63864 -9.4674 -1.00064 -37.8062 0.0 0.0 -0.0 0.0 -0.0 -5.77606 5.04973 -6.36972 -4.639 -0.163011 -0.693091 30.6952 19.0461 4.37246 -16.9236 0.0 0.0 0.0 0.0 0.0 
1142.94450746 703.576 -1976.53538971 1.64245052479 33.3545900682 1.10310729846 0.660531 0.0159116 -0.49308 0.660665 0.0472549 -0.491068 0.660288 0.143986 -0.471858 0.659983 0.0676588 -0.488675 -1.97071 9.27659 -0.349555 -1.81193 17.0378 0.833391 -0.0 0.0 -0.0 2.96127 9.28881 6.25703 -34.3154 -37.0656 66.0992 0.260031 -7.34011 0.0166789 -24.3439 -1.45997 2.72532 1.31458 -16.3274 1.85889 -0.0 0.0 -0.0 10.2538 23.3327 -19.6982 8.31362 -3.96687 -57.3909 2.58283 51.9809 -1.25936 64.2463 2.1662 7.48538 2.09106 -0.320976 -14.242 0.0 0.0 0.0 32.5658 10.3401 -5.03851 -22.2514 0.262103 3.38317 6.44418 -8.17961 -0.965355 -39.0208 0.0 0.0 -0.0 0.0 -0.0 -7.48926 4.20239 -8.48462 -4.54094 -0.160148 -0.678315 30.149 20.1751 4.35148 -18.6876 0.0 0.0 0.0 0.0 0.0 
1136.65212432 703.576 -1973.61170017 1.6563037735 34.0755469864 1.07814982665 0.660531 0.0159116 -0.49308 0.660665 0.0472549 -0.491068 0.660288 0.143986 -0.471858 0.659983 0.0676588 -0.488675 -1.97071 9.27659 -0.349555 -1.81193 17.0378 0.833391 -0.0 0.0 -0.0 2.96127 9.28881 6.25703 -34.3154 -37.0656 66.0992 0.260031 -7.34011 0.0166789 -24.3439 -1.45997 2.72532 1.31458 -16.3274 1.85889 -0.0 0.0 -0.0 10.2538 23.3327 -19.6982 8.31362 -3.96687 -57.3909 2.58283 51.9809 -1.25936 64.2463 2.1662 7.48538 2.09106 -0.320976 -14.242 0.0 0.0 0.0 32.5658 10.3401 -5.03851 -22.2514 0.262103 3.38317 6.44418 -8.17961 -0.965355 -39.0208 0.0 0.0 -0.0 0.0 -0.0 -7.48926 4.20239 -8.48462 -4.54094 -0.160148 -0.678315 30.149 20.1751 4.35148 -18.6876 0.0 0.0 0.0 0.0 0.0 
